<?xml version="1.0" encoding="UTF-8"?>
<!--
  gcry mark (icon only)
  Original artwork. Crystal-adjacent facet language (#000/#777/#FFF) without
  using the official Crystal logo. Sweep arc = garbage collection cycle.
-->
<svg xmlns="http://www.w3.org/2000/svg" viewBox="0 0 128 128" role="img" aria-label="gcry mark">
  <title>gcry</title>
  <path fill="#000" d="M64 6 L118 42 L118 94 L64 122 L10 94 L10 42 Z"/>
  <path fill="#777" d="M64 6 L118 42 L64 58 Z"/>
  <path fill="#555" d="M64 6 L64 58 L10 42 Z"/>
  <path fill="#333" d="M10 42 L64 58 L64 122 L10 94 Z"/>
  <path fill="#1a1a1a" d="M118 42 L64 58 L64 122 L118 94 Z"/>
  <path fill="none" stroke="#fff" stroke-width="9" stroke-linecap="round"
        d="M38 76 A30 30 0 1 0 90 76"/>
  <path fill="#fff" d="M86 66 L100 78 L84 84 Z"/>
  <circle cx="64" cy="68" r="8" fill="#fff"/>
  <circle cx="64" cy="68" r="3.5" fill="#000"/>
</svg>
